<svg id="Layer_1" data-name="Layer 1" xmlns="http://www.w3.org/2000/svg" viewBox="0 0 439.24 430.77"><defs><style>.cls-1{fill:#010101;}</style></defs><title>SRUX-LOGO-CIRCLE</title><path class="cls-1" d="M265.84,420.9q-5.38,1.65-10.9,3C260.19,423.32,263.75,422.37,265.84,420.9Z" transform="translate(17.94 0.34)"/><path d="M421.3,210.81a218.62,218.62,0,0,0-42.58-130V340.78A218.65,218.65,0,0,0,421.3,210.81Z" transform="translate(17.94 0.34)"/><path d="M-17.94,210.81A219,219,0,0,0,.46,298.92V122.71A219,219,0,0,0-17.94,210.81Z" transform="translate(17.94 0.34)"/><path d="M152.29,424.86a221.26,221.26,0,0,0,102.65-.95c-6.57.75-15.79.95-28.09.95Z" transform="translate(17.94 0.34)"/><path d="M250,387.15c-24.89-33.38-29.51-40.84-54.55-74.37-6.11-8.2-13-16.39-18.63-25-5.51-8.34-1.93-9.09,6.56-10.13,17.88-2.24,36.51-10.73,45.31-27.13,19.82-36.36,2.23-86.88-37-101.34C154,135.43,106.28,142.88,76,112.78A77.7,77.7,0,0,1,52.48,59.42a87.33,87.33,0,0,1,.3-10A220.32,220.32,0,0,0,.46,122.71V298.92A220.09,220.09,0,0,0,152.29,424.86h74.56c12.3,0,21.52-.2,28.09-.95q5.51-1.37,10.9-3C272.26,416.37,264.83,406.85,250,387.15Z" transform="translate(17.94 0.34)"/><path d="M378.72,340.78V80.85A220,220,0,0,0,262.24-.34H152.63c-28.13,0-52.76,33.08-48.14,65.28,6.56,46.2,51.27,48,88.38,54.39,43.22,7.46,78.54,27.43,89.72,72.73,9.83,39.65-11.78,84.8-50.67,102.24,27.87,37.26,39.79,54.1,56.18,75,10.25,12.4,17.46,20.94,25.73,30.4A220.86,220.86,0,0,0,378.72,340.78Z" transform="translate(17.94 0.34)"/></svg>