<svg id="Layer_1" data-name="Layer 1" xmlns="http://www.w3.org/2000/svg" viewBox="0 0 378.25 425.2"><defs><style>.cls-1{fill:#010101;}</style></defs><title>SRUX-LOGO</title><g id="Layer_3" data-name="Layer 3"><path class="cls-1" d="M226.85,424.86H.46V-.34h77.8c-18.74,18-26.38,37-25.78,59.76A77.7,77.7,0,0,0,76,112.78c30.25,30.1,77.94,22.65,115.65,36.36,39.19,14.46,56.78,65,37,101.34-8.8,16.4-27.43,24.89-45.31,27.13-8.49,1-12.07,1.79-6.56,10.13,5.67,8.65,12.52,16.84,18.63,25,25,33.53,29.66,41,54.55,74.37C275.74,421.31,279.16,424.86,226.85,424.86Z" transform="translate(-0.46 0.34)"/><path class="cls-1" d="M378.72,424.86H362c-23.45,0-34.18-9.5-44.69-21.23-9.83-11.15-17.56-20.26-29.22-34.37-16.39-20.86-28.31-37.7-56.18-75,38.89-17.44,60.5-62.59,50.67-102.24-11.18-45.3-46.5-65.27-89.72-72.73-37.11-6.41-81.82-8.19-88.38-54.39-4.62-32.2,20-65.28,48.14-65.28H378.72v425.2Z" transform="translate(-0.46 0.34)"/></g></svg>